<svg version="1.1" xmlns="http://www.w3.org/2000/svg" viewBox="7.3 170.3 1456.3 784.3">
<rect x="7.3" y="170.3" width="1456.3" height="784.3" fill="#202124" />
<polyline points="1120.0 227.0,1117.0 229.0,1114.0 232.0,1103.0 244.0,1102.0 246.0,1100.0 247.0,1099.0 249.0,1096.0 258.0,1095.0 260.0,1095.0 263.0,1096.0 274.0,1096.0 279.0,1097.0 281.0,1099.0 288.0,1100.0 290.0,1103.0 294.0,1104.0 297.0,1105.0 299.0,1107.0 300.0,1108.0 302.0,1110.0 304.0,1111.0 306.0,1113.0 307.0,1117.0 310.0,1120.0 312.0,1122.0 313.0,1127.0 314.0,1130.0 314.0,1134.0 313.0,1137.0 311.0,1139.0 309.0,1140.0 307.0,1142.0 304.0,1143.0 301.0,1144.0 299.0,1146.0 293.0,1146.0 289.0,1145.0 285.0,1145.0 281.0,1143.0 278.0,1141.0 277.0,1137.0 277.0,1122.0 277.0" style="fill:none;stroke:#ffffff;stroke-width:2"/>
<polyline points="1168.0 282.0,1168.0 297.0,1169.0 290.0,1170.0 288.0,1171.0 285.0,1174.0 281.0,1175.0 279.0,1177.0 277.0,1181.0 275.0,1183.0 272.0,1185.0 270.0,1187.0 269.0,1189.0 267.0,1190.0 268.0" style="fill:none;stroke:#ffffff;stroke-width:2"/>
<polyline points="1226.0 275.0,1224.0 278.0,1221.0 283.0,1220.0 286.0,1219.0 292.0,1219.0 299.0,1221.0 314.0,1225.0 314.0,1228.0 313.0,1232.0 311.0,1235.0 309.0,1236.0 307.0,1238.0 305.0,1239.0 303.0,1241.0 297.0,1243.0 293.0,1243.0 289.0,1242.0 285.0,1241.0 283.0,1239.0 277.0,1237.0 275.0,1234.0 271.0,1232.0 269.0,1229.0 269.0,1223.0 271.0,1225.0 273.0,1227.0 274.0,1230.0 275.0,1232.0 276.0,1235.0 278.0,1236.0 280.0,1238.0 282.0,1240.0 285.0,1241.0 287.0,1242.0 290.0,1243.0 295.0,1244.0 298.0,1244.0 302.0,1246.0 304.0,1249.0 305.0" style="fill:none;stroke:#ffffff;stroke-width:2"/>
<polyline points="1291.0 274.0,1288.0 286.0,1289.0 299.0,1289.0 302.0,1290.0 310.0,1292.0 315.0,1295.0 316.0,1297.0 314.0,1300.0 312.0,1302.0 310.0,1307.0 304.0,1308.0 302.0,1310.0 296.0,1311.0 294.0,1312.0 291.0,1312.0 287.0,1311.0 273.0,1311.0 270.0,1310.0 268.0,1309.0 263.0,1308.0 259.0,1307.0 256.0,1306.0 252.0,1305.0 250.0,1303.0 244.0,1302.0 242.0,1297.0 229.0,1296.0 227.0,1295.0 222.0,1294.0 218.0,1293.0 215.0,1292.0 211.0,1290.0 204.0,1289.0 201.0,1289.0 199.0" style="fill:none;stroke:#ffffff;stroke-width:2"/>
<polyline points="1339.0 275.0,1338.0 281.0,1338.0 290.0,1339.0 296.0,1339.0 299.0,1341.0 302.0,1342.0 304.0,1344.0 307.0,1346.0 308.0,1349.0 308.0,1353.0 310.0,1357.0 310.0,1364.0 309.0,1366.0 307.0,1371.0 303.0,1372.0 300.0,1373.0 298.0,1373.0 292.0,1372.0 289.0,1371.0 287.0,1370.0 284.0,1368.0 281.0,1366.0 279.0,1362.0 276.0,1359.0 274.0,1357.0 273.0,1354.0 272.0,1349.0 271.0,1345.0 271.0,1340.0 272.0,1341.0 274.0" style="fill:none;stroke:#ffffff;stroke-width:2"/>
<polyline points="1406.0 280.0,1402.0 281.0,1396.0 283.0,1390.0 289.0,1395.0 292.0,1401.0 292.0,1405.0 294.0,1410.0 295.0,1413.0 296.0,1418.0 298.0,1420.0 299.0,1421.0 302.0,1420.0 304.0,1417.0 307.0,1414.0 308.0,1412.0 310.0,1408.0 312.0,1404.0 312.0,1399.0 311.0,1396.0 310.0,1395.0 307.0" style="fill:none;stroke:#ffffff;stroke-width:2"/>
<polyline points="514.0 239.0,516.0 246.0,517.0 252.0,519.0 259.0,522.0 272.0,523.0 283.0,524.0 287.0,524.0 290.0,524.0 317.0" style="fill:none;stroke:#ffffff;stroke-width:2"/>
<polyline points="514.0 236.0,517.0 235.0,521.0 235.0,551.0 239.0,554.0 243.0,556.0 247.0,557.0 250.0,557.0 254.0,558.0 257.0,559.0 259.0,559.0 263.0,558.0 274.0,557.0 276.0,556.0 279.0,554.0 281.0,550.0 284.0,548.0 286.0,546.0 287.0,544.0 289.0,541.0 290.0,539.0 291.0,536.0 292.0,534.0 293.0,530.0 293.0,531.0 290.0,533.0 288.0,537.0 288.0,547.0 289.0,550.0 289.0,554.0 290.0,557.0 291.0,561.0 292.0,564.0 294.0,566.0 296.0,569.0 300.0,570.0 302.0,570.0 306.0,569.0 309.0,567.0 314.0,566.0 316.0,564.0 318.0,561.0 322.0,558.0 324.0,556.0 326.0,554.0 327.0,547.0 330.0,544.0 331.0,542.0 332.0,539.0 332.0,535.0 333.0,532.0 333.0,519.0 332.0,517.0 331.0,517.0 329.0" style="fill:none;stroke:#ffffff;stroke-width:2"/>
<polyline points="593.0 306.0,593.0 321.0,595.0 325.0,598.0 330.0,605.0 332.0,607.0 332.0,609.0 332.0" style="fill:none;stroke:#ffffff;stroke-width:2"/>
<polyline points="593.0 281.0,593.0 282.5,592.2 281.8" style="fill:none;stroke:#ffffff;stroke-width:2"/>
<polyline points="593.0 281.0,593.0 282.5,592.2 281.8" style="fill:none;stroke:#ffffff;stroke-width:2"/>
<polyline points="646.0 227.0,646.0 230.0,645.0 250.0,645.0 254.0,644.0 261.0,644.0 264.0,643.0 270.0,643.0 275.0,644.0 309.0,644.0 312.0,645.0 315.0,646.0 317.0,646.0 321.0,647.0 324.0,648.0 326.0,649.0 330.0,650.0 333.0,651.0 337.0,652.0 340.0,653.0 342.0,655.0 344.0,659.0 346.0,664.0 345.0,667.0 344.0" style="fill:none;stroke:#ffffff;stroke-width:2"/>
<polyline points="632.0 277.0,634.0 276.0,637.0 275.0,641.0 274.0,647.0 275.0" style="fill:none;stroke:#ffffff;stroke-width:2"/>
<polyline points="725.0 279.0,722.0 280.0,717.0 283.0,712.0 285.0,710.0 286.0,707.0 288.0,704.0 289.0,702.0 290.0,700.0 292.0,701.0 296.0,704.0 298.0,708.0 299.0,710.0 300.0,714.0 303.0,716.0 304.0,719.0 305.0,721.0 307.0,724.0 308.0,729.0 311.0,732.0 312.0,737.0 314.0,739.0 315.0,741.0 317.0,743.0 318.0,745.0 320.0,749.0 325.0,749.0 329.0,748.0 334.0,747.0 336.0,744.0 341.0,742.0 342.0,739.0 343.0,734.0 344.0,732.0 345.0,729.0 346.0,725.0 346.0,722.0 347.0,718.0 347.0,707.0 346.0,703.0 345.0,701.0 343.0,702.0 340.0,705.0 339.0,709.0 339.0,720.0 340.0,723.0 340.0,726.0 342.0,729.0 344.0" style="fill:none;stroke:#ffffff;stroke-width:2"/>
<polyline points="619.0 415.0,616.0 417.0,614.0 418.0,610.0 421.0,607.0 424.0,603.0 427.0,600.0 430.0,594.0 437.0,592.0 440.0,589.0 443.0,587.0 446.0,584.0 452.0,581.0 459.0,579.0 462.0,578.0 465.0,576.0 472.0,576.0 476.0,575.0 479.0,575.0 483.0,576.0 514.0,577.0 519.0,578.0 521.0,582.0 528.0,583.0 530.0,585.0 532.0,586.0 534.0,589.0 536.0,591.0 538.0,596.0 542.0,598.0 543.0,601.0 545.0,604.0 546.0,608.0 548.0,611.0 548.0,615.0 549.0,619.0 549.0,630.0 548.0,634.0 547.0,638.0 545.0,650.0 538.0,654.0 535.0,662.0 527.0,667.0 523.0,671.0 517.0,683.0 497.0,686.0 490.0,689.0 482.0,692.0 476.0,693.0 470.0,696.0 455.0,696.0 452.0,695.0 446.0,695.0 443.0,694.0 441.0,689.0 432.0,687.0 431.0,686.0 429.0,684.0 428.0,681.0 425.0,679.0 424.0,674.0 421.0,671.0 420.0,669.0 419.0,660.0 415.0,658.0 414.0,654.0 413.0,652.0 412.0,646.0 411.0,644.0 410.0,639.0 410.0,628.0 411.0,625.0 412.0,618.0 415.0,617.0 417.0,617.0 419.0" style="fill:none;stroke:#61ff6f;stroke-width:2"/>
<polyline points="493.0 816.0,495.0 812.0,497.0 809.0,502.0 801.0,504.0 797.0,506.0 795.0,507.0 793.0,509.0 791.0,510.0 795.0,511.0 797.0,512.0 802.0,512.0 806.0,513.0 810.0,513.0 814.0,514.0 818.0,514.0 821.0,512.0 885.0,511.0 889.0,510.0 892.0,510.0 895.0,508.0 898.0,506.0 900.0,503.0 902.0,500.0 903.0,498.0 904.0,494.0 905.0,491.0 907.0,487.0 907.0,489.0 905.0,492.0 904.0,497.0 904.0,536.0 904.0" style="fill:none;stroke:#ff5959;stroke-width:2"/>
<polyline points="584.0 792.0,583.0 794.0,580.0 798.0,579.0 800.0,576.0 805.0,575.0 808.0,573.0 815.0,571.0 819.0,571.0 823.0,570.0 828.0,569.0 832.0,568.0 837.0,568.0 840.0,569.0 866.0,569.0 869.0,570.0 873.0,571.0 880.0,572.0 883.0,576.0 894.0,577.0 896.0,578.0 900.0,579.0 902.0,581.0 905.0,582.0 907.0,584.0 909.0,585.0 911.0,587.0 912.0,589.0 914.0,591.0 915.0,593.0 917.0,598.0 918.0,603.0 918.0,608.0 917.0,610.0 916.0,613.0 914.0,614.0 912.0,616.0 911.0,617.0 908.0,619.0 904.0,626.0 888.0,627.0 882.0,628.0 875.0,629.0 870.0,630.0 864.0,630.0 860.0,629.0 848.0,629.0 845.0,628.0 842.0,627.0 838.0,626.0 835.0,624.0 832.0,623.0 830.0,621.0 828.0,620.0 826.0,617.0 823.0,612.0 819.0,610.0 817.0,607.0 816.0,605.0 815.0,603.0 813.0,601.0 812.0,596.0 809.0,594.0 808.0,585.0 804.0,583.0 803.0,580.0 802.0,576.0 802.0,569.0 802.0" style="fill:none;stroke:#ff5959;stroke-width:2"/>
<polyline points="668.0 806.0,670.0 804.0,675.0 802.0,679.0 800.0,687.0 800.0,690.0 803.0,691.0 805.0,693.0 807.0,694.0 811.0,694.0 814.0,693.0 822.0,693.0 826.0,692.0 829.0,689.0 839.0,688.0 842.0,687.0 846.0,685.0 850.0,684.0 853.0,683.0 857.0,682.0 860.0,679.0 865.0,678.0 868.0,677.0 872.0,676.0 874.0,674.0 877.0,671.0 881.0,669.0 884.0,665.0 888.0,663.0 891.0,661.0 892.0,659.0 894.0,657.0 895.0,655.0 897.0,653.0 898.0,647.0 900.0,645.0 898.0,645.0 894.0,647.0 891.0,649.0 889.0,652.0 887.0,657.0 885.0,661.0 885.0,667.0 886.0,670.0 887.0,674.0 887.0,678.0 888.0,681.0 890.0,685.0 890.0,688.0 891.0,690.0 892.0,697.0 896.0,698.0 897.0" style="fill:none;stroke:#ff5959;stroke-width:2"/>
<polyline points="738.0 798.0,742.0 797.0,745.0 796.0,748.0 796.0,752.0 795.0,755.0 795.0,758.0 794.0,761.0 794.0,774.0 795.0,776.0 796.0,778.0 799.0,779.0 801.0,780.0 805.0,780.0 809.0,779.0 824.0,778.0 827.0,778.0 831.0,777.0 833.0,775.0 836.0,774.0 839.0,771.0 842.0,769.0 845.0,766.0 847.0,764.0 849.0,761.0 851.0,757.0 854.0,753.0 854.0,755.0 852.0,759.0 850.0,762.0 849.0,767.0 849.0,783.0 850.0,789.0 851.0,793.0 852.0,795.0 854.0,798.0 855.0,800.0 857.0,801.0 859.0,802.0 862.0,803.0 866.0,803.0 869.0,802.0 874.0,801.0 877.0,800.0 879.0,799.0 883.0,797.0 886.0,794.0 888.0,792.0 889.0,789.0 890.0,784.0 892.0,781.0 893.0,776.0 894.0,773.0 895.0,769.0 897.0,765.0 898.0,763.0 899.0,760.0 900.0,754.0 901.0,750.0 901.0,740.0 901.0" style="fill:none;stroke:#ff5959;stroke-width:2"/>
<polyline points="1231.0 406.0,1228.0 408.0,1224.0 409.0,1221.0 411.0,1217.0 413.0,1214.0 414.0,1211.0 416.0,1206.0 420.0,1203.0 422.0,1201.0 423.0,1200.0 425.0,1198.0 427.0,1195.0 432.0,1193.0 434.0,1192.0 436.0,1189.0 440.0,1188.0 442.0,1186.0 448.0,1185.0 450.0,1183.0 453.0,1182.0 457.0,1182.0 461.0,1181.0 464.0,1179.0 468.0,1179.0 473.0,1180.0 486.0,1180.0 489.0,1181.0 491.0,1182.0 495.0,1183.0 498.0,1184.0 500.0,1189.0 509.0,1191.0 511.0,1192.0 513.0,1195.0 517.0,1196.0 519.0,1199.0 521.0,1201.0 523.0,1203.0 524.0,1206.0 527.0,1208.0 528.0,1211.0 530.0,1213.0 531.0,1219.0 533.0,1227.0 535.0,1230.0 536.0,1235.0 537.0,1238.0 537.0,1264.0 536.0,1269.0 535.0,1276.0 534.0,1278.0 533.0,1282.0 533.0,1285.0 532.0,1287.0 531.0,1296.0 526.0,1300.0 524.0,1306.0 520.0,1310.0 516.0,1312.0 515.0,1316.0 510.0,1318.0 508.0,1322.0 502.0,1324.0 500.0,1325.0 498.0,1326.0 495.0,1327.0 490.0,1327.0 486.0,1326.0 474.0,1325.0 470.0,1324.0 464.0,1323.0 461.0,1321.0 457.0,1320.0 453.0,1318.0 450.0,1317.0 447.0,1316.0 445.0,1314.0 442.0,1311.0 440.0,1307.0 437.0,1305.0 436.0,1303.0 434.0,1300.0 433.0,1296.0 431.0,1293.0 429.0,1291.0 428.0,1288.0 427.0,1286.0 426.0,1283.0 424.0,1279.0 423.0,1276.0 422.0,1274.0 421.0,1271.0 420.0,1267.0 419.0,1264.0 418.0,1260.0 418.0,1257.0 417.0,1253.0 416.0,1247.0 415.0,1245.0 414.0,1241.0 414.0,1227.0 413.0,1223.0 413.0,1219.0 413.0" style="fill:none;stroke:#ff9500;stroke-width:2"/>
<polyline points="1152.0 795.0,1156.0 792.0,1159.0 789.0,1163.0 786.0,1166.0 783.0,1170.0 780.0,1173.0 777.0,1175.0 774.0,1178.0 771.0,1185.0 763.0,1187.0 761.0,1191.0 759.0,1190.0 763.0,1189.0 765.0,1189.0 769.0,1188.0 772.0,1187.0 778.0,1187.0 782.0,1186.0 786.0,1186.0 790.0,1185.0 793.0,1185.0 797.0,1184.0 801.0,1184.0 804.0,1183.0 807.0,1182.0 811.0,1182.0 814.0,1181.0 817.0,1179.0 826.0,1178.0 828.0,1177.0 833.0,1176.0 836.0,1175.0 838.0,1174.0 842.0,1171.0 846.0,1169.0 849.0,1167.0 853.0,1165.0 855.0,1159.0 860.0,1155.0 863.0,1152.0 865.0,1150.0 866.0,1147.0 868.0,1144.0 869.0,1142.0 870.0,1139.0 871.0,1137.0 872.0,1134.0 871.0,1136.0 869.0,1139.0 868.0,1144.0 867.0,1146.0 866.0,1149.0 866.0,1200.0 866.0" style="fill:none;stroke:#ff9500;stroke-width:2"/>
<polyline points="1281.0 771.0,1266.0 772.0,1262.0 772.0,1259.0 773.0,1255.0 773.0,1252.0 774.0,1238.0 779.0,1236.0 781.0,1233.0 782.0,1231.0 783.0,1229.0 785.0,1225.0 790.0,1223.0 792.0,1221.0 795.0,1220.0 797.0,1218.0 803.0,1217.0 807.0,1217.0 810.0,1218.0 813.0,1220.0 815.0,1221.0 817.0,1224.0 820.0,1226.0 823.0,1229.0 826.0,1236.0 831.0,1238.0 834.0,1241.0 836.0,1250.0 843.0,1253.0 845.0,1261.0 851.0,1263.0 852.0,1264.0 854.0,1266.0 855.0,1270.0 858.0,1272.0 860.0,1273.0 862.0,1275.0 864.0,1276.0 867.0,1276.0 871.0,1275.0 874.0,1274.0 876.0,1272.0 878.0,1268.0 880.0,1264.0 881.0,1261.0 880.0,1259.0 878.0,1258.0 875.0,1257.0 873.0,1257.0 870.0,1258.0 854.0,1259.0 849.0,1260.0 843.0,1261.0 838.0,1262.0 834.0,1266.0 823.0,1267.0 820.0,1270.0 814.0,1275.0 805.0,1276.0 802.0,1278.0 799.0,1279.0 797.0,1281.0 791.0,1281.0 788.0,1280.0 780.0" style="fill:none;stroke:#ff9500;stroke-width:2"/>
<polyline points="1346.0 779.0,1341.0 780.0,1336.0 782.0,1334.0 783.0,1327.0 787.0,1325.0 789.0,1323.0 792.0,1321.0 794.0,1320.0 796.0,1318.0 798.0,1317.0 801.0,1315.0 803.0,1314.0 807.0,1312.0 810.0,1311.0 813.0,1309.0 816.0,1308.0 819.0,1306.0 826.0,1305.0 828.0,1305.0 831.0,1304.0 834.0,1304.0 839.0,1303.0 842.0,1303.0 846.0,1304.0 857.0,1305.0 861.0,1306.0 864.0,1308.0 867.0,1311.0 870.0,1314.0 874.0,1316.0 875.0,1321.0 878.0,1325.0 879.0,1328.0 881.0,1332.0 882.0,1335.0 882.0,1342.0 881.0,1347.0 880.0,1352.0 878.0,1355.0 877.0,1357.0 875.0,1360.0 874.0,1363.0 872.0,1365.0 870.0,1368.0 869.0,1371.0 866.0,1376.0 860.0,1379.0 856.0,1382.0 851.0,1386.0 846.0,1388.0 840.0,1393.0 822.0,1394.0 817.0,1395.0 813.0,1395.0 809.0,1394.0 797.0,1393.0 793.0,1391.0 787.0,1389.0 785.0,1388.0 783.0,1386.0 782.0,1383.0 780.0,1379.0 778.0,1370.0 775.0,1368.0 774.0,1365.0 774.0,1362.0 773.0,1357.0 773.0,1355.0 772.0,1351.0 772.0,1339.0 773.0,1337.0 774.0" style="fill:none;stroke:#ff9500;stroke-width:2"/>
<polyline points="1361.0 390.0,1368.0 396.0,1377.0 399.0,1383.0 395.0,1382.0 391.0,1380.0 389.0,1377.0 387.0,1373.0 387.0,1366.0 388.0,1364.0 389.0,1361.0 390.0,1359.0 392.0,1357.0 392.0" style="fill:none;stroke:#ff9500;stroke-width:2"/>
<polyline points="1418.0 760.0,1418.0 774.0,1419.0 785.0,1425.0 783.0,1429.0 778.0,1429.0 772.0,1428.0 769.0,1426.0 767.0,1424.0 766.0,1421.0 765.0,1420.0 763.0,1418.0 763.0" style="fill:none;stroke:#ff9500;stroke-width:2"/>
<polyline points="347.0 462.0,347.0 468.0,346.0 476.0,346.0 484.0,345.0 499.0,345.0 506.0,344.0 512.0,344.0 516.0,343.0 520.0,343.0 524.0,343.0 628.0,342.0 637.0,342.0 642.0,341.0 675.0,341.0 680.0,342.0 723.0,342.0 728.0,343.0 738.0,343.0 742.0,344.0 747.0,344.0 751.0,345.0 769.0,345.0 774.0,345.0 875.0,346.0 884.0" style="fill:none;stroke:#58daff;stroke-width:2"/>
<polyline points="310.0 866.0,312.0 870.0,317.0 877.0,319.0 880.0,323.0 887.0,324.0 889.0,326.0 892.0,327.0 894.0,328.0 897.0,330.0 899.0,332.0 902.0,333.0 906.0,335.0 909.0,336.0 912.0,338.0 916.0,339.0 919.0,341.0 922.0,342.0 924.0,345.0 929.0,346.0 931.0,347.0 934.0,349.0 936.0,354.0 929.0,355.0 927.0,357.0 922.0,360.0 912.0,363.0 907.0,364.0 902.0,366.0 898.0,367.0 894.0,369.0 890.0,370.0 887.0,371.0 881.0,372.0 879.0,373.0 875.0,374.0 872.0,375.0 870.0,376.0 867.0,377.0 865.0,379.0 862.0" style="fill:none;stroke:#58daff;stroke-width:2"/>
<polyline points="154.0 514.0,159.0 515.0,163.0 515.0,187.0 515.0,189.0 515.0,191.0 515.0,193.0 515.0" style="fill:none;stroke:#58daff;stroke-width:2"/>
<polyline points="173.0 497.0,173.0 500.0,172.0 506.0,172.0 509.0,171.0 524.0,171.0 530.0,171.0 542.0" style="fill:none;stroke:#58daff;stroke-width:2"/>
<polyline points="42.0 644.0,43.0 647.0,46.0 659.0,47.0 666.0,48.0 668.0,49.0 673.0,50.0 677.0,51.0 680.0,53.0 685.0,54.0 688.0,56.0 686.0,59.0 682.0,60.0 680.0,61.0 676.0,62.0 674.0,66.0 665.0,67.0 663.0,68.0 660.0,69.0 656.0,70.0 653.0,71.0 649.0,72.0 644.0,72.0 640.0,73.0 637.0,73.0 639.0" style="fill:none;stroke:#58daff;stroke-width:2"/>
<polyline points="92.0 674.0,90.0 675.0,89.0 677.0,86.0 679.0,85.0 681.0,83.0 683.0,82.0 685.0,80.0 687.0,79.0 689.0,77.0 692.0,76.0 694.0,75.0 698.0,76.0 701.0,78.0 703.0,82.0 706.0,86.0 706.0,90.0 705.0,92.0 704.0,94.0 702.0,96.0 698.0,96.0 694.0,95.0 679.0,94.0 675.0,94.0 673.0" style="fill:none;stroke:#58daff;stroke-width:2"/>
<polyline points="125.0 641.0,124.0 644.0,123.0 652.0,123.0 655.0,122.0 660.0,122.0 663.0,121.0 668.0,121.0 674.0,120.0 682.0,120.0 686.0,119.0 699.0,121.0 701.0" style="fill:none;stroke:#58daff;stroke-width:2"/>
<polyline points="160.0 649.0,159.0 652.0,158.0 658.0,157.0 660.0,156.0 667.0,155.0 671.0,154.0 677.0,153.0 679.0,153.0 684.0,154.0 699.0,155.0 701.0,157.0 704.0,158.0 706.0,162.0 705.0,165.0 704.0,167.0 704.0" style="fill:none;stroke:#58daff;stroke-width:2"/>
<polyline points="147.0 675.0,161.0 675.0,163.0 675.0,165.0 675.0,166.0 676.0" style="fill:none;stroke:#58daff;stroke-width:2"/>
<polyline points="195.0 681.0,187.0 689.0,184.0 693.0,182.0 696.0,181.0 702.0,182.0 708.0,183.0 711.0,185.0 714.0,188.0 715.0,192.0 715.0,195.0 713.0,197.0 711.0,199.0 710.0,201.0 708.0,203.0 705.0,204.0 702.0,206.0 699.0,207.0 696.0,207.0 692.0,206.0 673.0,203.0 672.0,201.0 674.0,201.0 678.0,203.0 692.0,204.0 694.0,206.0 697.0,207.0 700.0,209.0 702.0,210.0 706.0,210.0 710.0,212.0 714.0,214.0 713.0" style="fill:none;stroke:#58daff;stroke-width:2"/>
<polyline points="231.0 705.0,234.0 696.0,235.0 692.0,237.0 685.0,239.0 680.0,239.0 677.0,240.0 674.0,241.0 670.0,242.0 667.0,242.0 664.0,243.0 662.0,243.0 658.0,244.0 665.0,244.0 668.0,245.0 675.0,245.0 679.0,244.0 704.0,244.0 710.0,243.0 725.0,243.0 728.0,242.0 731.0,242.0 734.0,241.0 744.0,240.0 748.0,239.0 754.0,238.0 758.0,237.0 761.0,236.0 765.0,235.0 768.0,233.0 770.0,232.0 773.0,230.0 775.0,227.0 771.0,227.0 768.0,228.0 753.0,229.0 750.0,230.0 748.0,232.0 745.0,234.0 743.0,237.0 739.0,239.0 738.0,242.0 736.0,244.0 734.0,246.0 733.0,248.0 731.0,250.0 730.0,253.0 729.0,256.0 728.0" style="fill:none;stroke:#58daff;stroke-width:2"/>
<polyline points="251.0 642.0,251.0 643.5,250.2 642.8" style="fill:none;stroke:#58daff;stroke-width:2"/>
<polyline points="278.0 676.0,282.0 675.0,285.0 675.0,288.0 674.0,292.0 673.0,295.0 673.0,298.0 671.0,300.0 670.0,303.0 668.0,305.0 667.0,307.0 665.0,309.0 662.0,310.0 660.0,309.0 657.0,307.0 655.0,306.0 653.0,304.0 651.0,301.0 652.0,298.0 654.0,296.0 656.0,290.0 663.0,287.0 666.0,284.0 670.0,283.0 672.0,282.0 675.0,281.0 677.0,278.0 682.0,277.0 684.0,274.0 689.0,274.0 693.0,275.0 701.0,276.0 703.0,277.0 706.0,279.0 710.0,281.0 712.0,283.0 713.0,287.0 713.0,299.0 713.0" style="fill:none;stroke:#58daff;stroke-width:2"/>
<polyline points="616.0 607.0,615.0 613.0,615.0 619.0,614.0 625.0,614.0 631.0,616.0 712.0,617.0 714.0,617.0 717.0" style="fill:none;stroke:#000000;stroke-width:2"/>
<polyline points="583.0 724.0,584.0 726.0,587.0 731.0,589.0 734.0,590.0 736.0,593.0 740.0,594.0 742.0,596.0 744.0,602.0 749.0,605.0 751.0,607.0 752.0,610.0 754.0,612.0 756.0,616.0 758.0,617.0 761.0,619.0 763.0,622.0 761.0,624.0 758.0,625.0 756.0,626.0 752.0,628.0 749.0,631.0 744.0,632.0 741.0,634.0 739.0,635.0 737.0,638.0 734.0,639.0 732.0,642.0 729.0,643.0 726.0,646.0 724.0,648.0 721.0,650.0 719.0" style="fill:none;stroke:#000000;stroke-width:2"/>
<polyline points="1253.0 598.0,1253.0 602.0,1251.0 681.0,1250.0 690.0,1250.0 698.0,1254.0 700.0" style="fill:none;stroke:#000000;stroke-width:2"/>
<polyline points="1209.0 696.0,1211.0 697.0,1218.0 704.0,1222.0 709.0,1226.0 712.0,1229.0 715.0,1231.0 716.0,1233.0 718.0,1240.0 726.0,1241.0 728.0,1243.0 730.0,1249.0 734.0,1252.0 735.0,1256.0 735.0,1259.0 733.0,1261.0 731.0,1264.0 727.0,1266.0 726.0,1268.0 723.0,1270.0 721.0,1272.0 718.0,1274.0 716.0,1276.0 713.0,1278.0 712.0,1280.0 709.0,1282.0 708.0,1283.0 706.0,1285.0 705.0,1287.0 702.0,1288.0 700.0,1289.0 697.0,1288.0 698.0" style="fill:none;stroke:#000000;stroke-width:2"/>
<polyline points="816.0 471.0,820.0 472.0,825.0 472.0,829.0 473.0,834.0 473.0,839.0 474.0,844.0 474.0,849.0 475.0,854.0 475.0,900.0 474.0,905.0 474.0,959.0 475.0,963.0 475.0,973.0 476.0,977.0 476.0,1018.0 475.0,1022.0 475.0,1050.0 474.0,1053.0 474.0,1061.0 473.0,1064.0 473.0,1069.0 472.0,1073.0 472.0,1085.0 472.0" style="fill:none;stroke:#000000;stroke-width:2"/>
<polyline points="1081.0 447.0,1085.0 449.0,1105.0 458.0,1108.0 460.0,1111.0 461.0,1113.0 462.0,1120.0 466.0,1123.0 466.0,1126.0 468.0,1128.0 470.0,1127.0 473.0,1123.0 476.0,1121.0 477.0,1119.0 479.0,1116.0 481.0,1113.0 482.0,1111.0 483.0,1100.0 488.0,1098.0 489.0,1095.0 490.0,1090.0 491.0,1087.0 492.0,1085.0 493.0,1082.0 494.0,1077.0 495.0" style="fill:none;stroke:#000000;stroke-width:2"/>
<polyline points="859.0 835.0,864.0 835.0,888.0 834.0,894.0 834.0,916.0 833.0,920.0 833.0,937.0 832.0,940.0 832.0,960.0 831.0,964.0 831.0,975.0 830.0,978.0 830.0,1079.0 831.0,1088.0 832.0" style="fill:none;stroke:#000000;stroke-width:2"/>
<polyline points="1082.0 814.0,1084.0 815.0,1089.0 818.0,1091.0 819.0,1093.0 821.0,1095.0 822.0,1098.0 824.0,1100.0 825.0,1103.0 826.0,1105.0 828.0,1107.0 829.0,1108.0 831.0,1110.0 832.0,1112.0 834.0,1113.0 837.0,1111.0 839.0,1107.0 842.0,1105.0 844.0,1101.0 847.0,1099.0 849.0,1097.0 850.0,1094.0 851.0,1092.0 852.0,1089.0 854.0,1087.0 855.0,1084.0 857.0,1080.0 859.0,1077.0 860.0" style="fill:none;stroke:#000000;stroke-width:2"/>
<polyline points="817.0 380.0,819.0 379.0,826.0 376.0,827.0 386.0,826.0 390.0,825.0 393.0,825.0 396.0,824.0 398.0,823.0 402.0,821.0 406.0,821.0 409.0,820.0 412.0,818.0 414.0,820.0 412.0,821.0 410.0,826.0 401.0,829.0 396.0,832.0 392.0,835.0 389.0,838.0 385.0,840.0 382.0,842.0 380.0,843.0 378.0,845.0 377.0,846.0 375.0,849.0 374.0,851.0 372.0,855.0 373.0,856.0 376.0,856.0 380.0,855.0 385.0,854.0 388.0,853.0 394.0,852.0 397.0,850.0 400.0,850.0 404.0,852.0 400.0,854.0 395.0,855.0 393.0,857.0 390.0,859.0 386.0,862.0 381.0,864.0 379.0,865.0 376.0,867.0 374.0,868.0 372.0,871.0 369.0,873.0 366.0,876.0 365.0,878.0 363.0,880.0 367.0,880.0 370.0,879.0 373.0,878.0 375.0,878.0 378.0,877.0 380.0,876.0 384.0,875.0 387.0,875.0 391.0,874.0 394.0,872.0 397.0,871.0 399.0,871.0 401.0" style="fill:none;stroke:#c86cff;stroke-width:2"/>
<polyline points="905.0 360.0,919.0 360.0,925.0 366.0,933.0 377.0,934.0 381.0,934.0 385.0,935.0 388.0,935.0 393.0,936.0 405.0,936.0 409.0,935.0 400.0,933.0 398.0,932.0 395.0,930.0 390.0,929.0 387.0,927.0 385.0,923.0 383.0,919.0 383.0,916.0 384.0,914.0 386.0,912.0 387.0,911.0 390.0,911.0 394.0,914.0 395.0,916.0 396.0,919.0 397.0,923.0 399.0,926.0 400.0,928.0 402.0,932.0 404.0" style="fill:none;stroke:#c86cff;stroke-width:2"/>
<polyline points="968.0 370.0,968.0 375.0,967.0 450.0,967.0 452.0,967.0 454.0,967.0 456.0,968.0 457.0" style="fill:none;stroke:#c86cff;stroke-width:2"/>
<polyline points="965.0 372.0,980.0 372.0,995.0 373.0,1002.0 376.0,1005.0 378.0,1007.0 380.0,1007.0 384.0,1006.0 387.0,1005.0 389.0,1002.0 394.0,1000.0 395.0,997.0 397.0,991.0 399.0,987.0 401.0,983.0 402.0,980.0 404.0,977.0 405.0,973.0 406.0,969.0 406.0,971.0 406.0" style="fill:none;stroke:#c86cff;stroke-width:2"/>
<polyline points="814.0 654.0,822.0 655.0,831.0 657.0,840.0 658.0,848.0 658.0,855.0 659.0,862.0 659.0,965.0 658.0,1015.0 656.0,1018.0 656.0,1090.0 656.0" style="fill:none;stroke:#000000;stroke-width:2"/>
<polyline points="1090.0 633.0,1095.0 634.0,1100.0 636.0,1106.0 639.0,1111.0 641.0,1120.0 644.0,1124.0 645.0,1127.0 647.0,1129.0 648.0,1132.0 648.0,1135.0 650.0,1137.0 651.0,1143.0 653.0,1145.0 655.0,1146.0 658.0,1144.0 660.0,1141.0 662.0,1138.0 663.0,1136.0 664.0,1124.0 671.0,1121.0 672.0,1117.0 673.0,1115.0 674.0,1110.0 677.0,1107.0 678.0,1105.0 679.0,1103.0 680.0" style="fill:none;stroke:#000000;stroke-width:2"/>
</svg>